<?xml version="1.0" encoding="UTF-8" standalone="no"?>
<!DOCTYPE svg PUBLIC "-//W3C//DTD SVG 1.1//EN" "http://www.w3.org/Graphics/SVG/1.1/DTD/svg11.dtd">
<svg width="100%" height="100%" viewBox="0 0 730 284" version="1.1" xmlns="http://www.w3.org/2000/svg" xmlns:xlink="http://www.w3.org/1999/xlink" xml:space="preserve" xmlns:serif="http://www.serif.com/" style="fill-rule:evenodd;clip-rule:evenodd;stroke-linejoin:round;stroke-miterlimit:2;">
    <g transform="matrix(334.663,115.503,115.503,-334.663,-16.9953,204.984)">
        <path d="M0.006,0.129L0.027,0.068L0.065,0.081L0.154,-0.177L0.218,-0.155L0.129,0.103L0.167,0.116L0.146,0.177L0.006,0.129Z" style="fill:url(#_Linear1);fill-rule:nonzero;"/>
    </g>
    <g transform="matrix(334.663,115.503,115.503,-334.663,-10.4959,186.152)">
        <path d="M0.206,0.121C0.198,0.103 0.198,0.079 0.208,0.052L0.26,-0.1C0.27,-0.129 0.285,-0.149 0.303,-0.16C0.322,-0.17 0.344,-0.171 0.37,-0.162C0.395,-0.154 0.412,-0.139 0.42,-0.119C0.429,-0.099 0.428,-0.074 0.418,-0.045L0.365,0.106C0.356,0.134 0.342,0.152 0.324,0.162C0.305,0.171 0.283,0.172 0.258,0.163C0.232,0.154 0.215,0.14 0.206,0.121ZM0.336,-0.101C0.332,-0.098 0.328,-0.091 0.325,-0.081L0.271,0.075C0.266,0.091 0.268,0.101 0.279,0.104C0.288,0.108 0.296,0.101 0.301,0.086L0.355,-0.07C0.361,-0.089 0.36,-0.1 0.35,-0.103C0.345,-0.105 0.34,-0.105 0.336,-0.101Z" style="fill:url(#_Linear2);fill-rule:nonzero;"/>
    </g>
    <g transform="matrix(334.663,115.503,115.503,-334.663,-1.93199,161.339)">
        <path d="M0.471,0.159L0.551,-0.072C0.553,-0.078 0.555,-0.083 0.556,-0.088C0.557,-0.093 0.557,-0.098 0.556,-0.101C0.555,-0.105 0.552,-0.108 0.547,-0.11C0.542,-0.111 0.538,-0.111 0.534,-0.109C0.531,-0.106 0.528,-0.103 0.526,-0.098C0.524,-0.093 0.522,-0.088 0.52,-0.083L0.44,0.148L0.378,0.127L0.459,-0.107C0.469,-0.136 0.483,-0.156 0.5,-0.167C0.518,-0.177 0.54,-0.178 0.567,-0.169C0.594,-0.159 0.611,-0.145 0.618,-0.126C0.625,-0.107 0.624,-0.082 0.614,-0.053L0.533,0.181L0.471,0.159Z" style="fill:url(#_Linear3);fill-rule:nonzero;"/>
    </g>
    <g transform="matrix(334.663,115.503,115.503,-334.663,5.04837,141.113)">
        <path d="M0.6,0.119C0.593,0.098 0.595,0.072 0.606,0.041L0.657,-0.106C0.666,-0.132 0.68,-0.15 0.699,-0.159C0.718,-0.169 0.739,-0.17 0.762,-0.162C0.788,-0.153 0.805,-0.14 0.815,-0.122C0.825,-0.105 0.825,-0.082 0.815,-0.054L0.794,0.007L0.73,-0.016L0.75,-0.073C0.752,-0.08 0.753,-0.086 0.753,-0.092C0.752,-0.097 0.749,-0.1 0.743,-0.102C0.738,-0.104 0.734,-0.104 0.73,-0.101C0.726,-0.098 0.723,-0.092 0.72,-0.083L0.665,0.077C0.662,0.084 0.661,0.09 0.662,0.095C0.662,0.1 0.666,0.103 0.672,0.105C0.677,0.107 0.681,0.107 0.685,0.104C0.688,0.102 0.692,0.096 0.695,0.086L0.711,0.039L0.775,0.061L0.756,0.116C0.75,0.133 0.742,0.146 0.731,0.154C0.72,0.163 0.708,0.168 0.695,0.17C0.681,0.171 0.666,0.169 0.651,0.164C0.624,0.155 0.606,0.139 0.6,0.119Z" style="fill:url(#_Linear4);fill-rule:nonzero;"/>
    </g>
    <g transform="matrix(334.663,115.503,115.503,-334.663,13.0944,117.801)">
        <path d="M0.865,0.165L0.904,0.051L0.874,0.04L0.835,0.155L0.771,0.133L0.882,-0.187L0.945,-0.165L0.895,-0.02L0.925,-0.01L0.975,-0.155L1.039,-0.133L0.929,0.187L0.865,0.165Z" style="fill:url(#_Linear5);fill-rule:nonzero;"/>
    </g>
    <g transform="matrix(4.16667,0,0,4.16667,412.85,162.511)">
        <path d="M0,28.718L0,5.516L-3.411,5.516L-3.411,0L9.153,0L9.153,5.516L5.743,5.516L5.743,28.718L0,28.718Z" style="fill:white;fill-rule:nonzero;"/>
    </g>
    <g transform="matrix(4.16667,0,0,4.16667,479.093,162.511)">
        <path d="M0,28.718L0,19.271L-4.585,0L1.11,0L2.709,9.725L4.308,0L9.986,0L5.418,19.271L5.418,28.718L0,28.718Z" style="fill:white;fill-rule:nonzero;"/>
    </g>
    <g transform="matrix(4.16667,0,0,4.16667,557.239,231.385)">
        <path d="M0,-4.341L0.326,-4.341C1.392,-4.341 2.045,-4.64 2.284,-5.238C2.523,-5.836 2.644,-6.717 2.644,-7.882C2.644,-8.969 2.526,-9.81 2.293,-10.403C2.058,-10.995 1.506,-11.291 0.636,-11.291L0,-11.291L0,-4.341ZM-5.646,12.188L-5.646,-16.529L1.941,-16.529C3.529,-16.529 4.788,-16.175 5.719,-15.469C6.648,-14.762 7.314,-13.755 7.718,-12.45C8.12,-11.145 8.321,-9.589 8.321,-7.783C8.321,-6.043 8.152,-4.528 7.815,-3.239C7.479,-1.95 6.878,-0.952 6.013,-0.245C5.147,0.463 3.922,0.815 2.333,0.815L0,0.815L0,12.188L-5.646,12.188Z" style="fill:white;fill-rule:nonzero;"/>
    </g>
    <g transform="matrix(4.16667,0,0,4.16667,606.425,162.511)">
        <path d="M0,28.718L0,0L11.487,0L11.487,5.548L5.841,5.548L5.841,11.145L11.258,11.145L11.258,16.546L5.841,16.546L5.841,23.121L11.861,23.121L11.861,28.718L0,28.718Z" style="fill:white;fill-rule:nonzero;"/>
    </g>
    <g transform="matrix(4.16667,0,0,4.16667,695.036,237.84)">
        <path d="M0,-7.44L1.387,-7.44C2.181,-7.44 2.578,-8.305 2.578,-10.035C2.578,-11.154 2.49,-11.889 2.316,-12.237C2.144,-12.586 1.816,-12.759 1.338,-12.759L0,-12.759L0,-7.44ZM-5.841,10.639L-5.841,-18.079L2.97,-18.079C4.438,-18.079 5.548,-17.745 6.298,-17.075C7.049,-16.407 7.553,-15.471 7.808,-14.269C8.063,-13.066 8.191,-11.655 8.191,-10.035C8.191,-8.468 7.993,-7.216 7.596,-6.281C7.198,-5.345 6.45,-4.699 5.353,-4.339C6.255,-4.155 6.889,-3.707 7.253,-2.994C7.617,-2.281 7.8,-1.359 7.8,-0.228L7.8,10.639L2.138,10.639L2.138,-0.603C2.138,-1.441 1.966,-1.96 1.623,-2.162C1.281,-2.362 0.729,-2.463 -0.032,-2.463L-0.032,10.639L-5.841,10.639Z" style="fill:white;fill-rule:nonzero;"/>
    </g>
    <g transform="matrix(196.577,129.941,129.941,-196.577,20.1267,12.0944)">
        <path d="M0.565,0.434C0.5,0.374 0.419,0.31 0.326,0.249C0.233,0.188 0.142,0.138 0.062,0.101C0.029,0.086 0.012,0.049 0.023,0.015L0.157,-0.388C0.172,-0.432 0.224,-0.45 0.263,-0.425L0.971,0.043C1.009,0.069 1.013,0.124 0.978,0.155L0.66,0.435C0.636,0.457 0.601,0.459 0.575,0.441C0.571,0.439 0.568,0.437 0.565,0.434Z" style="fill:url(#_Linear6);fill-rule:nonzero;"/>
    </g>
    <g transform="matrix(203.241,133.273,133.273,-203.241,514.783,11.5826)">
        <path d="M0.556,0.42C0.493,0.363 0.413,0.301 0.323,0.242C0.233,0.183 0.144,0.134 0.066,0.099C0.034,0.085 0.018,0.049 0.029,0.016L0.157,-0.375C0.171,-0.418 0.222,-0.436 0.259,-0.411L0.947,0.04C0.985,0.064 0.989,0.118 0.955,0.148L0.647,0.421C0.624,0.442 0.59,0.444 0.565,0.427C0.562,0.425 0.559,0.423 0.556,0.42Z" style="fill:url(#_Linear7);fill-rule:nonzero;"/>
    </g>
    <g transform="matrix(4.16667,0,0,4.16667,454.476,116.346)">
        <path d="M0,-15.387C-0.533,-17.365 -2.476,-18.602 -4.497,-18.275C-9.432,-17.477 -15.289,-17.014 -21.574,-17.014C-27.859,-17.014 -33.717,-17.477 -38.651,-18.275C-40.673,-18.602 -42.615,-17.364 -43.148,-15.387L-46.815,-1.805C-47.498,0.725 -45.593,3.215 -42.972,3.215L-0.177,3.215C2.444,3.215 4.35,0.725 3.667,-1.805L0,-15.387Z" style="fill:white;fill-rule:nonzero;"/>
    </g>
    <defs>
        <linearGradient id="_Linear1" x1="0" y1="0" x2="1" y2="0" gradientUnits="userSpaceOnUse" gradientTransform="matrix(1,0,0,-1,0,-1.42036e-05)"><stop offset="0" style="stop-color:rgb(39,128,205);stop-opacity:1"/><stop offset="1" style="stop-color:rgb(52,140,217);stop-opacity:1"/></linearGradient>
        <linearGradient id="_Linear2" x1="0" y1="0" x2="1" y2="0" gradientUnits="userSpaceOnUse" gradientTransform="matrix(1,0,0,-1,0,0.000400857)"><stop offset="0" style="stop-color:rgb(39,128,205);stop-opacity:1"/><stop offset="1" style="stop-color:rgb(52,140,217);stop-opacity:1"/></linearGradient>
        <linearGradient id="_Linear3" x1="0" y1="0" x2="1" y2="0" gradientUnits="userSpaceOnUse" gradientTransform="matrix(1,0,0,-1,0,0.00277046)"><stop offset="0" style="stop-color:rgb(39,128,205);stop-opacity:1"/><stop offset="1" style="stop-color:rgb(52,140,217);stop-opacity:1"/></linearGradient>
        <linearGradient id="_Linear4" x1="0" y1="0" x2="1" y2="0" gradientUnits="userSpaceOnUse" gradientTransform="matrix(1,0,0,-1,0,0.00152228)"><stop offset="0" style="stop-color:rgb(39,128,205);stop-opacity:1"/><stop offset="1" style="stop-color:rgb(52,140,217);stop-opacity:1"/></linearGradient>
        <linearGradient id="_Linear5" x1="0" y1="0" x2="1" y2="0" gradientUnits="userSpaceOnUse" gradientTransform="matrix(1,0,0,-1,0,-1.17244e-05)"><stop offset="0" style="stop-color:rgb(39,128,205);stop-opacity:1"/><stop offset="1" style="stop-color:rgb(52,140,217);stop-opacity:1"/></linearGradient>
        <linearGradient id="_Linear6" x1="0" y1="0" x2="1" y2="0" gradientUnits="userSpaceOnUse" gradientTransform="matrix(1,0,0,-1,0,0.00828134)"><stop offset="0" style="stop-color:rgb(39,128,205);stop-opacity:1"/><stop offset="1" style="stop-color:rgb(52,140,217);stop-opacity:1"/></linearGradient>
        <linearGradient id="_Linear7" x1="0" y1="0" x2="1" y2="0" gradientUnits="userSpaceOnUse" gradientTransform="matrix(1,-5.55112e-17,-5.55112e-17,-1,0,0.00796274)"><stop offset="0" style="stop-color:rgb(39,128,205);stop-opacity:1"/><stop offset="1" style="stop-color:rgb(52,140,217);stop-opacity:1"/></linearGradient>
    </defs>
</svg>
